<?xml version="1.0" encoding="UTF-8"?>
<svg width="24px" height="32px" viewBox="0 0 24 32" version="1.1" xmlns="http://www.w3.org/2000/svg" xmlns:xlink="http://www.w3.org/1999/xlink">
    <!-- Generator: Sketch 52.2 (67145) - http://www.bohemiancoding.com/sketch -->
    <title>Group 5</title>
    <desc>Created with Sketch.</desc>
    <g id="Page-1" stroke="none" stroke-width="1" fill="none" fill-rule="evenodd" opacity="0.6">
        <g id="Keto_cycle_recepies" transform="translate(-230.000000, -617.000000)" stroke="#56468F" stroke-width="1.5">
            <g id="Group-4" transform="translate(51.000000, 618.000000)">
                <g id="Group-2" transform="translate(180.000000, 0.000000)">
                    <g id="Group-5">
                        <path d="M13.29414,12.84792 C13.78134,13.35432 14.19414,13.88652 14.50614,14.50272 L11.65134,15.03672 C12.13194,14.26632 12.68454,13.53492 13.29414,12.84792 Z M20.45874,0.30672 C15.69894,0.72612 12.18534,3.10272 10.13754,6.53652 C8.76594,8.25672 6.02394,13.50912 5.02794,16.25832 C3.21834,19.67772 1.64334,23.74632 0.40854,27.41172 C-0.34386,29.65512 3.04014,31.11792 3.79974,28.86552 C4.72314,26.12292 5.83674,23.15592 7.09494,20.40192 C8.34654,23.20032 9.61674,25.98972 10.98114,28.73412 C12.03534,30.86172 15.21834,28.99452 14.16354,26.87292 C12.75954,24.04632 11.45634,21.17772 10.16994,18.29712 C10.18674,18.24132 10.20774,18.18672 10.22634,18.13332 C10.43934,18.19452 10.67634,18.21312 10.93674,18.16392 C12.90294,17.79372 14.86674,17.42532 16.83534,17.05752 C17.67474,16.89792 17.99814,15.97932 17.86434,15.24372 C17.46834,13.03572 16.20954,11.50032 14.64654,10.04952 C14.41434,9.25752 13.63854,8.55912 12.77874,7.86552 C14.52234,5.04792 17.36754,3.51792 21.07074,3.19212 C22.96194,3.02532 22.33194,0.14292 20.45874,0.30672 Z" id="Stroke-1"></path>
                        <path d="M19.89648,7.8042 C19.89648,9.2034 18.76188,10.3356 17.36508,10.3356 C15.96588,10.3356 14.83188,9.2034 14.83188,7.8042 C14.83188,6.405 15.96588,5.2728 17.36508,5.2728 C18.76188,5.2728 19.89648,6.405 19.89648,7.8042 Z" id="Stroke-3"></path>
                    </g>
                </g>
            </g>
        </g>
    </g>
</svg>