<?xml version="1.0" encoding="UTF-8"?>
<svg width="27px" height="27px" viewBox="0 0 27 27" version="1.1" xmlns="http://www.w3.org/2000/svg" xmlns:xlink="http://www.w3.org/1999/xlink">
    <!-- Generator: Sketch 51.2 (57519) - http://www.bohemiancoding.com/sketch -->
    <title>Group 6</title>
    <desc>Created with Sketch.</desc>
    <defs></defs>
    <g id="Page-1" stroke="none" stroke-width="1" fill="none" fill-rule="evenodd">
        <g id="Keto_cycle_recepies" transform="translate(-50.000000, -619.000000)" fill="#56468F" stroke="#56468F" stroke-width="0.5">
            <g id="Group-4" transform="translate(51.000000, 620.000000)">
                <g id="Group-6">
                    <path d="M6.48644772,12.0775641 C6.48644772,11.7508813 6.24472397,11.4864865 5.94605325,11.4864865 C5.64712915,11.4864865 5.40540541,11.7508813 5.40540541,12.0775641 C5.40540541,13.6302602 6.97122545,15.7619089 7.1496044,16.0003215 C7.2567838,16.1424268 7.41191521,16.2162162 7.56806013,16.2162162 C7.68854194,16.2162162 7.81003726,16.1724276 7.91075549,16.0823559 C8.14133055,15.8749834 8.17452322,15.5025719 7.98569238,15.2498171 C7.40621418,14.4771412 6.48644772,12.9333137 6.48644772,12.0775641" id="Fill-1"></path>
                    <path d="M18.3784794,11.4864865 C18.0795303,11.4864865 17.8377864,11.7508774 17.8377864,12.0775555 C17.8377864,12.9303133 16.9181966,14.4759888 16.3384166,15.2503162 C16.14957,15.5025131 16.1832723,15.8749191 16.41412,16.0822886 C16.5143398,16.1723589 16.6358453,16.2162162 16.7565905,16.2162162 C16.9127485,16.2162162 17.0674494,16.1423586 17.1748278,16.0002554 C17.3532216,15.7618462 18.9189189,13.6302288 18.9189189,12.0775555 C18.9189189,11.7508774 18.677175,11.4864865 18.3784794,11.4864865" id="Fill-3"></path>
                    <path d="M12.8379566,11.4864865 C12.4643892,11.4864865 12.1621622,11.7508774 12.1621622,12.0775555 L12.1621622,15.6248701 C12.1621622,15.9518253 12.4643892,16.2162162 12.8379566,16.2162162 C13.2112865,16.2162162 13.5135135,15.9518253 13.5135135,15.6248701 L13.5135135,12.0775555 C13.5135135,11.7508774 13.2112865,11.4864865 12.8379566,11.4864865" id="Fill-5"></path>
                    <path d="M20.7768617,13.180984 C20.746742,13.1931516 20.7186835,13.2073803 20.6919548,13.2246011 C20.6204787,13.269016 20.5618351,13.3277261 20.5178856,13.3952128 C20.4737367,13.4621676 20.443617,13.5398271 20.4317154,13.6229388 C20.4264628,13.6547207 20.4249335,13.6861037 20.4254654,13.7183511 L20.4254654,19.2906915 L4.54567819,19.2906915 L4.55299202,13.7261303 C4.55345745,13.6948803 4.55166223,13.6635638 4.54727394,13.6329122 C4.53503989,13.5472074 4.50359043,13.4671543 4.45764628,13.3980718 C4.41429521,13.3331782 4.35791223,13.2767287 4.28902926,13.2334441 C4.26077128,13.2156915 4.23085106,13.2001995 4.2,13.1874335 C2.33776596,12.3732048 1.13470745,10.5390293 1.13470745,8.5106383 C1.13470745,5.69468085 3.42526596,3.40418883 6.24115691,3.40418883 C6.3512633,3.40418883 6.46742021,3.41742021 6.58138298,3.42652926 C6.00718085,4.42413564 5.67367021,5.57706117 5.67367021,6.80837766 C5.67367021,7.12214096 5.92739362,7.37586436 6.24115691,7.37586436 C6.55465426,7.37586436 6.80837766,7.12214096 6.80837766,6.80837766 C6.80837766,3.6799867 9.35398936,1.13470745 12.4823138,1.13470745 C15.6107048,1.13470745 18.155984,3.6799867 18.155984,6.80837766 C18.155984,7.12214096 18.4097074,7.37586436 18.7234707,7.37586436 C19.0369681,7.37586436 19.2906915,7.12214096 19.2906915,6.80837766 C19.2906915,5.57706117 18.9572473,4.42413564 18.3832447,3.42652926 C18.4972739,3.41742021 18.6133644,3.40418883 18.7234707,3.40418883 C21.5391622,3.40418883 23.8296543,5.69494681 23.8296543,8.5106383 C23.8296543,10.5317819 22.6317819,12.3636303 20.7768617,13.180984 Z M20.4254654,22.649734 C20.4254654,23.3 19.8958777,23.8299202 19.2452793,23.8299202 L5.72140957,23.8299202 C5.40618351,23.8299202 5.10957447,23.7067819 4.88643617,23.4834441 C4.66363032,23.2603723 4.54075798,22.9637633 4.5412234,22.6479388 L4.54408245,20.4254654 L20.4254654,20.4254654 L20.4254654,22.649734 Z M18.7234707,2.26941489 C18.3795878,2.26941489 18.0201463,2.31489362 17.6472074,2.38424202 C16.3974069,0.927726064 14.5476064,0 12.4823138,0 C10.4170213,0 8.56702128,0.927726064 7.3174867,2.38424202 C6.94421543,2.31489362 6.58503989,2.26941489 6.24115691,2.26941489 C2.79980053,2.26941489 0,5.06928191 0,8.5106383 C0,10.868617 1.32978723,13.0124335 3.41742021,14.0723404 L3.40651596,22.646875 C3.40605053,23.2655585 3.64621011,23.8476064 4.08364362,24.2852394 C4.5212766,24.7233378 5.1025266,24.9643617 5.72140957,24.9643617 L19.2452793,24.9643617 C20.5220745,24.9643617 21.5601729,23.9259309 21.5601729,22.6494681 L21.5601729,14.0640293 C23.6402926,13.0015293 24.9646277,10.8608378 24.9646277,8.5106383 C24.9643617,5.06928191 22.1648271,2.26941489 18.7234707,2.26941489 Z" id="Fill-7"></path>
                </g>
            </g>
        </g>
    </g>
</svg>