<?xml version="1.0" encoding="UTF-8"?>
<svg width="21px" height="28px" viewBox="0 0 21 28" version="1.1" xmlns="http://www.w3.org/2000/svg" xmlns:xlink="http://www.w3.org/1999/xlink">
    <!-- Generator: Sketch 51.2 (57519) - http://www.bohemiancoding.com/sketch -->
    <title>Group 24</title>
    <desc>Created with Sketch.</desc>
    <defs>
        <polygon id="path-1" points="0 0.0454490566 20.5333333 0.0454490566 20.5333333 28 0 28"></polygon>
    </defs>
    <g id="Page-1" stroke="none" stroke-width="1" fill="none" fill-rule="evenodd">
        <g id="Keto_cycle_recepies" transform="translate(-221.000000, -617.000000)">
            <g id="Group-5" transform="translate(221.000000, 617.000000)">
                <g id="Group-24">
                    <g id="Group-3">
                        <mask id="mask-2" fill="white">
                            <use xlink:href="#path-1"></use>
                        </mask>
                        <g id="Clip-2"></g>
                        <path d="M19.6139303,26.0982038 C19.6139303,26.6474113 19.160205,27.0943547 18.6026637,27.0943547 L1.93066965,27.0943547 C1.37312836,27.0943547 0.919402985,26.6474113 0.919402985,26.0982038 L0.919402985,3.87948679 C0.919402985,3.33020377 1.37312836,2.88333585 1.93066965,2.88333585 L5.3940607,2.88333585 L5.3940607,3.90952453 L2.42124776,3.90952453 C2.16710945,3.90952453 1.96154627,4.11239245 1.96154627,4.36235472 L1.96154627,25.6153358 C1.96154627,25.8652981 2.16710945,26.068166 2.42124776,26.068166 L18.1124687,26.068166 C18.3662239,26.068166 18.5721701,25.8652981 18.5721701,25.6153358 L18.5721701,4.36235472 C18.5721701,4.11239245 18.3662239,3.90952453 18.1124687,3.90952453 L15.1396557,3.90952453 L15.1396557,2.88333585 L18.6026637,2.88333585 C19.160205,2.88333585 19.6139303,3.33020377 19.6139303,3.87948679 L19.6139303,26.0982038 Z M6.83415224,1.91722264 L8.57749353,1.91722264 C8.74091741,1.91722264 8.89238905,1.83141132 8.97467562,1.69193962 C9.24881095,1.22824151 9.7318806,0.951109434 10.2666667,0.951109434 C10.8015294,0.951109434 11.2845224,1.22824151 11.5586577,1.69193962 C11.6410209,1.83141132 11.7924159,1.91722264 11.9561463,1.91722264 L13.6991811,1.91722264 C13.9864945,1.91722264 14.2202527,2.14748679 14.2202527,2.43050566 L14.2202527,4.36122264 L14.2202527,4.36235472 L14.2202527,4.36295849 C14.2199463,4.64567547 13.9861881,4.87563774 13.6991811,4.87563774 L6.83415224,4.87563774 C6.54745174,4.87563774 6.314,4.64597736 6.31346368,4.36356226 L6.31346368,4.36235472 C6.31346368,4.36175094 6.31315721,4.36092075 6.31315721,4.36001509 L6.31315721,2.43050566 C6.31346368,2.14748679 6.54714527,1.91722264 6.83415224,1.91722264 Z M5.46945174,4.81518491 C5.66191343,5.37624151 6.20091343,5.78129811 6.83415224,5.78129811 L13.6991811,5.78129811 C14.332803,5.78129811 14.8714965,5.37624151 15.0638816,4.81518491 L17.6527672,4.81518491 L17.6527672,25.1625057 L2.88094925,25.1625057 L2.88094925,4.81518491 L5.46945174,4.81518491 Z M18.6026637,1.97767547 L15.0638816,1.97767547 C14.8714965,1.41661887 14.332803,1.01156226 13.6991811,1.01156226 L12.2027761,1.01156226 C11.7484378,0.409826415 11.0289284,0.0454490566 10.2666667,0.0454490566 C9.50471144,0.0454490566 8.78489552,0.409826415 8.3309403,1.01156226 L6.83415224,1.01156226 C6.20091343,1.01156226 5.66191343,1.41661887 5.46945174,1.97767547 L1.93066965,1.97767547 C0.866154229,1.97767547 0,2.83080755 0,3.87948679 L0,26.0982038 C0,27.146883 0.866154229,28.0000151 1.93066965,28.0000151 L18.6026637,28.0000151 C19.6672557,28.0000151 20.5333333,27.146883 20.5333333,26.0982038 L20.5333333,3.87948679 C20.5333333,2.83080755 19.6672557,1.97767547 18.6026637,1.97767547 Z" id="Fill-1" fill="#56468F" mask="url(#mask-2)"></path>
                    </g>
                    <path d="M10.2666667,3.73333333 C10.4386593,3.73333333 10.5777778,3.53135452 10.5777778,3.28164758 L10.5777778,2.31835242 C10.5777778,2.06864548 10.4386593,1.86666667 10.2666667,1.86666667 C10.0949333,1.86666667 9.95555556,2.06864548 9.95555556,2.31835242 L9.95555556,3.28164758 C9.95555556,3.53135452 10.0949333,3.73333333 10.2666667,3.73333333" id="Fill-4" fill="#56468F"></path>
                    <path d="M11.0222487,9.95555556 L13.8666402,9.95555556 C14.1120622,9.95555556 14.3111111,9.81617778 14.3111111,9.64444444 C14.3111111,9.47245185 14.1120622,9.33333333 13.8666402,9.33333333 L11.0222487,9.33333333 C10.7765303,9.33333333 10.5777778,9.47245185 10.5777778,9.64444444 C10.5777778,9.81617778 10.7765303,9.95555556 11.0222487,9.95555556" id="Fill-6" fill="#56468F"></path>
                    <path d="M11.019883,11.8222222 L15.7356725,11.8222222 C15.9797146,11.8222222 16.1777778,11.6831037 16.1777778,11.5111111 C16.1777778,11.3393778 15.9797146,11.2 15.7356725,11.2 L11.019883,11.2 C10.7754725,11.2 10.5777778,11.3393778 10.5777778,11.5111111 C10.5777778,11.6831037 10.7754725,11.8222222 11.019883,11.8222222" id="Fill-8" fill="#56468F"></path>
                    <path d="M6.00620333,11.6979192 C6.09851422,11.7807879 6.21941627,11.8222222 6.34031832,11.8222222 C6.46122038,11.8222222 6.58212243,11.7807879 6.67443332,11.6979192 L9.19486701,9.43529293 C9.37948878,9.26962626 9.37948878,9.00115152 9.19486701,8.83541414 C9.01024524,8.66967677 8.71125879,8.66967677 8.52663702,8.83541414 L6.34031832,10.798101 L5.16225186,9.74053535 C4.9776301,9.57479798 4.67856489,9.57479798 4.49402188,9.74053535 C4.30940011,9.90627273 4.30940011,10.1746768 4.49402188,10.3404141 L6.00620333,11.6979192 Z" id="Fill-10" fill="#56468F"></path>
                    <path d="M11.0222487,14.9333333 L13.8666402,14.9333333 C14.1120622,14.9333333 14.3111111,14.7939556 14.3111111,14.6222222 C14.3111111,14.4502815 14.1120622,14.3111111 13.8666402,14.3111111 L11.0222487,14.3111111 C10.7765303,14.3111111 10.5777778,14.4502815 10.5777778,14.6222222 C10.5777778,14.7939556 10.7765303,14.9333333 11.0222487,14.9333333" id="Fill-12" fill="#56468F"></path>
                    <path d="M11.019883,16.8 L15.7356725,16.8 C15.9797146,16.8 16.1777778,16.6608296 16.1777778,16.4888889 C16.1777778,16.3171037 15.9797146,16.1777778 15.7356725,16.1777778 L11.019883,16.1777778 C10.7754725,16.1777778 10.5777778,16.3171037 10.5777778,16.4888889 C10.5777778,16.6608296 10.7754725,16.8 11.019883,16.8" id="Fill-14" fill="#56468F"></path>
                    <path d="M6.00620333,16.6756991 C6.09851422,16.7585664 6.21941627,16.8 6.34031832,16.8 C6.46122038,16.8 6.58212243,16.7585664 6.67443332,16.6756991 L9.19486701,14.4131114 C9.37948878,14.2473768 9.37948878,13.9789067 9.19486701,13.8132428 C9.01024524,13.6474376 8.71125879,13.6474376 8.52663702,13.8132428 L6.34031832,15.7758255 L5.16225186,14.7182779 C4.9776301,14.5526141 4.67856489,14.5526141 4.49402188,14.7182779 C4.30940011,14.8840125 4.30940011,15.1524826 4.49402188,15.3182172 L6.00620333,16.6756991 Z" id="Fill-16" fill="#56468F"></path>
                    <path d="M11.0222487,19.2888889 L13.8666402,19.2888889 C14.1120622,19.2888889 14.3111111,19.1495111 14.3111111,18.9777778 C14.3111111,18.805837 14.1120622,18.6666667 13.8666402,18.6666667 L11.0222487,18.6666667 C10.7765303,18.6666667 10.5777778,18.805837 10.5777778,18.9777778 C10.5777778,19.1495111 10.7765303,19.2888889 11.0222487,19.2888889" id="Fill-18" fill="#56468F"></path>
                    <path d="M11.019883,21.7777778 L15.7356725,21.7777778 C15.9797146,21.7777778 16.1777778,21.6386074 16.1777778,21.4666667 C16.1777778,21.2948815 15.9797146,21.1555556 15.7356725,21.1555556 L11.019883,21.1555556 C10.7754725,21.1555556 10.5777778,21.2948815 10.5777778,21.4666667 C10.5777778,21.6386074 10.7754725,21.7777778 11.019883,21.7777778" id="Fill-20" fill="#56468F"></path>
                    <path d="M6.00620333,21.6534747 C6.09851422,21.7363434 6.21941627,21.7777778 6.34031832,21.7777778 C6.46122038,21.7777778 6.58212243,21.7363434 6.67443332,21.6534747 L9.19486701,19.3908485 C9.37948878,19.2251111 9.37948878,18.9566364 9.19486701,18.7909697 C9.01024524,18.6252323 8.71125879,18.6252323 8.52663702,18.7909697 L6.34031832,20.7535859 L5.16225186,19.6960202 C4.9776301,19.5303535 4.67856489,19.5303535 4.49402188,19.6960202 C4.30940011,19.8617576 4.30940011,20.1302323 4.49402188,20.2959697 L6.00620333,21.6534747 Z" id="Fill-22" fill="#56468F"></path>
                </g>
            </g>
        </g>
    </g>
</svg>