<svg xmlns="http://www.w3.org/2000/svg" viewBox="0 0 263.49 87.11"><defs><style>.cls-1{fill:#444;}.cls-2{fill:#ff3464;}</style></defs><title>Asset 1</title><g id="Layer_2" data-name="Layer 2"><g id="Layer_1-2" data-name="Layer 1"><path class="cls-1" d="M95.12,30.25l.39,3.26a5.28,5.28,0,0,1-2.16,1.34v18a5.8,5.8,0,0,1,2.16,1.3l-.39,3.26H85.93l-.39-3.26a5,5,0,0,1,2.16-1.3v-18a4.63,4.63,0,0,1-2.16-1.34l.39-3.26Zm13.71,27.11h-6.52L93.59,43.22l6.56-8.72a4.18,4.18,0,0,1-1.53-1.06L99,30.25h9l.39,3.18a5.72,5.72,0,0,1-2,1.26l-6.8,8.37,6.21,9.35a6.15,6.15,0,0,1,3.5,1.69Z"/><path class="cls-1" d="M119.36,57.67q-4.71,0-7.09-2.51t-2.38-7.31a13.7,13.7,0,0,1,.83-5A7.63,7.63,0,0,1,113,39.6a10,10,0,0,1,6.4-2.2,7.77,7.77,0,0,1,5.6,1.87q1.94,1.87,1.94,6.7,0,2.83-2.79,2.83h-8.52a5,5,0,0,0,1.28,3.5,5.17,5.17,0,0,0,3.56,1A10.16,10.16,0,0,0,123,53a7.68,7.68,0,0,0,1.77-.63l.55-.31,1.18,3.14a8.24,8.24,0,0,1-.69.69A8.51,8.51,0,0,1,123.5,57,11.71,11.71,0,0,1,119.36,57.67Zm2.48-12.37a9.65,9.65,0,0,0,.08-1.34,2.92,2.92,0,0,0-.63-1.67,2.49,2.49,0,0,0-2.18-.88,3,3,0,0,0-2.38.94,6,6,0,0,0-1.1,3.18Z"/><path class="cls-1" d="M136.05,32.77v4.95h5.62V41h-5.62V51a3.58,3.58,0,0,0,.35,1.83q.35.57,1.69.57a8,8,0,0,0,2.87-.59l1.18,3.06A13.55,13.55,0,0,1,136,57.36q-3.16,0-4.28-1.36a6.06,6.06,0,0,1-1.12-3.95V41h-1.77l-.43-2.4a6.56,6.56,0,0,1,2.59-1.49q.47-3.22,2.24-4.36Z"/><path class="cls-1" d="M152.61,57.67q-4.66,0-6.89-2.48t-2.24-7.48q0-5,2.49-7.66t7.17-2.65q4.68,0,6.93,2.36t2.26,7.37q0,5-2.53,7.78A9.25,9.25,0,0,1,152.61,57.67Zm-3.48-10.29q0,6.29,3.77,6.29a3.15,3.15,0,0,0,2.85-1.43,9,9,0,0,0,.92-4.69q0-6.13-3.85-6.13A3.12,3.12,0,0,0,150,42.76,8.71,8.71,0,0,0,149.13,47.38Z"/><path class="cls-1" d="M188,34.89a9.35,9.35,0,0,0-3.54-.51,4.47,4.47,0,0,0-3.81,2q-1.45,2-1.45,7.15t1.39,7.25A4.62,4.62,0,0,0,184.77,53a21.27,21.27,0,0,0,7.54-1.26l1.41,3.5a18.79,18.79,0,0,1-9.78,2.48q-5.62,0-8.11-3.18t-2.49-10.41q0-7.23,3.08-10.69t8.66-3.46a16.08,16.08,0,0,1,8.52,2.48v.9a15.76,15.76,0,0,1-.27,2.28,9.54,9.54,0,0,1-.79,2.63h-3.73A9.86,9.86,0,0,1,188,34.89Z"/><path class="cls-1" d="M200.87,61.92q.71,0,1.51-1.32a8.85,8.85,0,0,0,1.12-3.12l-6.44-15.24a5.34,5.34,0,0,1-2.59-1.49l.39-3h9l.39,3a4.39,4.39,0,0,1-1.73,1.14l2.16,5.93a17.67,17.67,0,0,1,1,3.65l.12.55h.55a22.47,22.47,0,0,1,1.1-4.12l2.08-5.81a4.46,4.46,0,0,1-2-1.33l.39-3h8.64l.39,3a5.41,5.41,0,0,1-2.59,1.53l-6.48,15.32A29.87,29.87,0,0,1,205,63.21a5.66,5.66,0,0,1-4.81,2.32,6.36,6.36,0,0,1-4.69-1.61,7.85,7.85,0,0,1,0-.79,9.49,9.49,0,0,1,.9-4.08h3.26a6.52,6.52,0,0,1,.67,2.87Z"/><path class="cls-1" d="M227.11,41.41q-3.62,0-3.61,6.21,0,3.14,1,4.38a3.5,3.5,0,0,0,2.89,1.24,22.54,22.54,0,0,0,5.26-.55l1.18,3a11.76,11.76,0,0,1-3.38,1.4,15.91,15.91,0,0,1-4.12.57q-8.49,0-8.49-9.82,0-5.73,2.95-8.25a9.66,9.66,0,0,1,6.4-2.2,12.68,12.68,0,0,1,6.29,1.42c0,.26,0,.51,0,.75a9.21,9.21,0,0,1-1,4.24H229a5.77,5.77,0,0,1-.67-2.36Q227.9,41.41,227.11,41.41Z"/><path class="cls-1" d="M235.48,29.47a18.18,18.18,0,0,1,4.09-.51q1.89,0,3.18.12V53a5.28,5.28,0,0,1,2.16,1.33l-.39,3h-9l-.39-3A4.64,4.64,0,0,1,237.25,53V33.83a5.07,5.07,0,0,1-2.16-1.34Z"/><path class="cls-1" d="M255.95,57.67q-4.71,0-7.09-2.51t-2.38-7.31a13.7,13.7,0,0,1,.83-5,7.63,7.63,0,0,1,2.24-3.24,10,10,0,0,1,6.4-2.2,7.77,7.77,0,0,1,5.6,1.87q1.94,1.87,1.94,6.7,0,2.83-2.79,2.83h-8.52a5,5,0,0,0,1.28,3.5,5.17,5.17,0,0,0,3.56,1,10.16,10.16,0,0,0,2.55-.31,7.68,7.68,0,0,0,1.77-.63l.55-.31,1.18,3.14a8.24,8.24,0,0,1-.69.69,8.51,8.51,0,0,1-2.28,1.1A11.71,11.71,0,0,1,255.95,57.67Zm2.48-12.37A9.65,9.65,0,0,0,258.5,44a2.92,2.92,0,0,0-.63-1.67,2.49,2.49,0,0,0-2.18-.88,3,3,0,0,0-2.38.94,6,6,0,0,0-1.1,3.18Z"/><path class="cls-2" d="M13.6,18.29c6.51,0,11.14-3.66,12.16-6.85,2.63-1.73,8.82-.67,12.38.57A32.43,32.43,0,0,1,64.77,63l4.69,3.27A38.15,38.15,0,0,0,38.15,6.29c-3.57,1.24-9.76,2.31-12.37.57C24.73,3.66,20.08,0,13.58,0S1.18,3.27,1.09,9.06h0v.15h0C1.19,15,7.13,18.29,13.6,18.29Zm10-6.8c-.22.35-5.08,7.55-15.6,3A21.26,21.26,0,0,0,23.6,11.49Z"/><path class="cls-2" d="M56.68,82.31l18.09-.17,0-1.86-18.2.17,0-1.72,18.21-.17v-2l-18.21.18V75l18.2-.17V73.27L59.29,72.09s-.58-.05-.8-.05a7.56,7.56,0,0,0-5.86,2.88c-6.36,5.74-12.94,1.92-14.49,1.94A32.43,32.43,0,0,1,11.26,26.31L6.52,23.1A38.15,38.15,0,0,0,38.15,82.58c1.8,0,9.29-3.21,14.92,2.2,0,0,0,0,0,0a7.54,7.54,0,0,0,5,2.3c.15,0,.49,0,.49,0L74.8,85.59V83.87L56.69,84Z"/><path class="cls-2" d="M23.24,57.11l.53,4.43H36.26l.53-4.43a7.89,7.89,0,0,0-2.93-1.76V31a7.18,7.18,0,0,0,2.93-1.82l-.53-4.43H23.77l-.53,4.43A6.3,6.3,0,0,0,26.18,31V55.35A6.82,6.82,0,0,0,23.24,57.11Z"/><path class="cls-2" d="M54.88,61.54l.53-4.43q-1.28-1.55-4.75-2.29l-8.43-12.7,9.23-11.36A7.78,7.78,0,0,0,54.24,29l-.53-4.32H41.54L41,29a5.66,5.66,0,0,0,2.08,1.44L34.18,42.33,46,61.54Z"/></g></g></svg>